<svg width="372" height="57" viewBox="0 0 372 57" fill="none" xmlns="http://www.w3.org/2000/svg">
<g filter="url(#filter0_d)">
<path d="M15.58 44.32L14.6171 46.073L14.6317 46.081L14.6465 46.0888L15.58 44.32ZM8.86 37.96L7.1472 38.9927L7.15407 39.0039L8.86 37.96ZM8.86 19.78L7.15407 18.7361L8.86 19.78ZM15.58 13.48L16.5238 15.2433L16.5326 15.2386L15.58 13.48ZM39.4 16.96L40.7784 18.4091L42.1285 17.1249L40.9429 15.6875L39.4 16.96ZM34.48 21.64L32.9912 22.9755L34.3663 24.5084L35.8584 23.0891L34.48 21.64ZM19.54 19L18.5823 17.2442L18.5738 17.2489L18.5653 17.2536L19.54 19ZM15.46 23.02L13.731 22.0148L13.7222 22.0299L13.7136 22.0453L15.46 23.02ZM15.46 34.72L13.7136 35.6947L13.7222 35.7101L13.731 35.7252L15.46 34.72ZM19.54 38.74L18.5653 40.4864L18.5738 40.4911L18.5823 40.4958L19.54 38.74ZM34.48 36.04L35.8676 34.5997L34.3519 33.1394L32.9708 34.7276L34.48 36.04ZM39.4 40.78L40.9274 42.0712L42.1373 40.64L40.7876 39.3397L39.4 40.78ZM25.24 44.6C21.9744 44.6 19.0796 43.9055 16.5135 42.5512L14.6465 46.0888C17.8404 47.7745 21.3856 48.6 25.24 48.6V44.6ZM16.5429 42.567C13.9981 41.1692 12.0183 39.2895 10.5659 36.9161L7.15407 39.0039C8.98165 41.9905 11.4819 44.3508 14.6171 46.073L16.5429 42.567ZM10.5728 36.9273C9.13171 34.5373 8.4 31.858 8.4 28.84H4.4C4.4 32.542 5.30829 35.9427 7.14724 38.9927L10.5728 36.9273ZM8.4 28.84C8.4 25.8218 9.13167 23.1677 10.5659 20.8239L7.15407 18.7361C5.30833 21.7523 4.4 25.1382 4.4 28.84H8.4ZM10.5659 20.8239C12.0155 18.4551 13.989 16.6 16.5238 15.2433L14.6362 11.7167C11.491 13.4 8.9845 15.7449 7.15407 18.7361L10.5659 20.8239ZM16.5326 15.2386C19.0951 13.8506 21.983 13.14 25.24 13.14V9.14C21.377 9.14 17.8249 9.98944 14.6274 11.7214L16.5326 15.2386ZM25.24 13.14C31.04 13.14 35.1268 14.9221 37.8571 18.2325L40.9429 15.6875C37.2732 11.2379 31.92 9.14 25.24 9.14V13.14ZM38.0216 15.5109L33.1016 20.1909L35.8584 23.0891L40.7784 18.4091L38.0216 15.5109ZM35.9688 20.3045C33.1608 17.1743 29.625 15.56 25.48 15.56V19.56C28.455 19.56 30.9192 20.6657 32.9912 22.9755L35.9688 20.3045ZM25.48 15.56C22.9787 15.56 20.664 16.1087 18.5823 17.2442L20.4977 20.7558C21.936 19.9713 23.5813 19.56 25.48 19.56V15.56ZM18.5653 17.2536C16.5286 18.3903 14.9095 19.9878 13.731 22.0148L17.189 24.0252C18.0105 22.6122 19.1114 21.5296 20.5147 20.7464L18.5653 17.2536ZM13.7136 22.0453C12.5716 24.0914 12.02 26.3726 12.02 28.84H16.02C16.02 26.9874 16.4284 25.3886 17.2064 23.9947L13.7136 22.0453ZM12.02 28.84C12.02 31.3406 12.5685 33.6432 13.7136 35.6947L17.2064 33.7453C16.4315 32.3568 16.02 30.7394 16.02 28.84H12.02ZM13.731 35.7252C14.9095 37.7522 16.5286 39.3496 18.5653 40.4864L20.5147 36.9936C19.1114 36.2104 18.0105 35.1278 17.189 33.7148L13.731 35.7252ZM18.5823 40.4958C20.664 41.6313 22.9787 42.18 25.48 42.18V38.18C23.5813 38.18 21.936 37.7687 20.4977 36.9842L18.5823 40.4958ZM25.48 42.18C29.6694 42.18 33.2163 40.5412 35.9892 37.3524L32.9708 34.7276C30.9437 37.0588 28.4906 38.18 25.48 38.18V42.18ZM33.0924 37.4803L38.0124 42.2203L40.7876 39.3397L35.8676 34.5997L33.0924 37.4803ZM37.8726 39.4888C35.0531 42.8241 30.9485 44.6 25.24 44.6V48.6C31.8515 48.6 37.1869 46.4959 40.9274 42.0712L37.8726 39.4888ZM46.5513 11.68V9.68H44.5513V11.68H46.5513ZM54.1113 11.68H56.1113V9.68H54.1113V11.68ZM54.1113 25.48H52.1113V27.48H54.1113V25.48ZM70.6113 25.48V27.48H72.6113V25.48H70.6113ZM70.6113 11.68V9.68H68.6113V11.68H70.6113ZM78.1712 11.68H80.1712V9.68H78.1712V11.68ZM78.1712 46V48H80.1712V46H78.1712ZM70.6113 46H68.6113V48H70.6113V46ZM70.6113 31.72H72.6113V29.72H70.6113V31.72ZM54.1113 31.72V29.72H52.1113V31.72H54.1113ZM54.1113 46V48H56.1113V46H54.1113ZM46.5513 46H44.5513V48H46.5513V46ZM46.5513 13.68H54.1113V9.68H46.5513V13.68ZM52.1113 11.68V25.48H56.1113V11.68H52.1113ZM54.1113 27.48H70.6113V23.48H54.1113V27.48ZM72.6113 25.48V11.68H68.6113V25.48H72.6113ZM70.6113 13.68H78.1712V9.68H70.6113V13.68ZM76.1712 11.68V46H80.1712V11.68H76.1712ZM78.1712 44H70.6113V48H78.1712V44ZM72.6113 46V31.72H68.6113V46H72.6113ZM70.6113 29.72H54.1113V33.72H70.6113V29.72ZM52.1113 31.72V46H56.1113V31.72H52.1113ZM54.1113 44H46.5513V48H54.1113V44ZM48.5513 46V11.68H44.5513V46H48.5513ZM115.562 39.94H117.562V37.94H115.562V39.94ZM115.562 46V48H117.562V46H115.562ZM88.9216 46H86.9216V48H88.9216V46ZM88.9216 11.68V9.68H86.9216V11.68H88.9216ZM114.902 11.68H116.902V9.68H114.902V11.68ZM114.902 17.8V19.8H116.902V17.8H114.902ZM96.4816 17.8V15.8H94.4816V17.8H96.4816ZM96.4816 25.66H94.4816V27.66H96.4816V25.66ZM112.862 25.66H114.862V23.66H112.862V25.66ZM112.862 31.54V33.54H114.862V31.54H112.862ZM96.4816 31.54V29.54H94.4816V31.54H96.4816ZM96.4816 39.94H94.4816V41.94H96.4816V39.94ZM113.562 39.94V46H117.562V39.94H113.562ZM115.562 44H88.9216V48H115.562V44ZM90.9216 46V11.68H86.9216V46H90.9216ZM88.9216 13.68H114.902V9.68H88.9216V13.68ZM112.902 11.68V17.8H116.902V11.68H112.902ZM114.902 15.8H96.4816V19.8H114.902V15.8ZM94.4816 17.8V25.66H98.4816V17.8H94.4816ZM96.4816 27.66H112.862V23.66H96.4816V27.66ZM110.862 25.66V31.54H114.862V25.66H110.862ZM112.862 29.54H96.4816V33.54H112.862V29.54ZM94.4816 31.54V39.94H98.4816V31.54H94.4816ZM96.4816 41.94H115.562V37.94H96.4816V41.94ZM129.859 44.32L128.896 46.073L128.911 46.081L128.925 46.0888L129.859 44.32ZM123.139 37.96L121.426 38.9927L121.433 39.0039L123.139 37.96ZM123.139 19.78L121.433 18.7361L123.139 19.78ZM129.859 13.48L130.803 15.2433L130.811 15.2386L129.859 13.48ZM153.679 16.96L155.057 18.4091L156.407 17.1249L155.222 15.6875L153.679 16.96ZM148.759 21.64L147.27 22.9755L148.645 24.5084L150.137 23.0891L148.759 21.64ZM133.819 19L132.861 17.2442L132.853 17.2489L132.844 17.2536L133.819 19ZM129.739 23.02L128.01 22.0148L128.001 22.0299L127.993 22.0453L129.739 23.02ZM129.739 34.72L127.993 35.6947L128.001 35.7101L128.01 35.7252L129.739 34.72ZM133.819 38.74L132.844 40.4864L132.853 40.4911L132.861 40.4958L133.819 38.74ZM148.759 36.04L150.147 34.5997L148.631 33.1394L147.25 34.7276L148.759 36.04ZM153.679 40.78L155.206 42.0712L156.416 40.64L155.067 39.3397L153.679 40.78ZM139.519 44.6C136.253 44.6 133.358 43.9055 130.792 42.5512L128.925 46.0888C132.119 47.7745 135.665 48.6 139.519 48.6V44.6ZM130.822 42.567C128.277 41.1692 126.297 39.2895 124.845 36.9161L121.433 39.0039C123.261 41.9905 125.761 44.3508 128.896 46.073L130.822 42.567ZM124.852 36.9273C123.411 34.5373 122.679 31.858 122.679 28.84H118.679C118.679 32.542 119.587 35.9427 121.426 38.9927L124.852 36.9273ZM122.679 28.84C122.679 25.8218 123.411 23.1677 124.845 20.8239L121.433 18.7361C119.587 21.7523 118.679 25.1382 118.679 28.84H122.679ZM124.845 20.8239C126.294 18.4551 128.268 16.6 130.803 15.2433L128.915 11.7167C125.77 13.4 123.263 15.7449 121.433 18.7361L124.845 20.8239ZM130.811 15.2386C133.374 13.8506 136.262 13.14 139.519 13.14V9.14C135.656 9.14 132.104 9.98944 128.906 11.7214L130.811 15.2386ZM139.519 13.14C145.319 13.14 149.406 14.9221 152.136 18.2325L155.222 15.6875C151.552 11.2379 146.199 9.14 139.519 9.14V13.14ZM152.3 15.5109L147.38 20.1909L150.137 23.0891L155.057 18.4091L152.3 15.5109ZM150.248 20.3045C147.44 17.1743 143.904 15.56 139.759 15.56V19.56C142.734 19.56 145.198 20.6657 147.27 22.9755L150.248 20.3045ZM139.759 15.56C137.258 15.56 134.943 16.1087 132.861 17.2442L134.777 20.7558C136.215 19.9713 137.86 19.56 139.759 19.56V15.56ZM132.844 17.2536C130.808 18.3903 129.188 19.9878 128.01 22.0148L131.468 24.0252C132.289 22.6122 133.39 21.5296 134.794 20.7464L132.844 17.2536ZM127.993 22.0453C126.85 24.0914 126.299 26.3726 126.299 28.84H130.299C130.299 26.9874 130.707 25.3886 131.485 23.9947L127.993 22.0453ZM126.299 28.84C126.299 31.3406 126.847 33.6432 127.993 35.6947L131.485 33.7453C130.71 32.3568 130.299 30.7394 130.299 28.84H126.299ZM128.01 35.7252C129.188 37.7522 130.808 39.3496 132.844 40.4864L134.794 36.9936C133.39 36.2104 132.289 35.1278 131.468 33.7148L128.01 35.7252ZM132.861 40.4958C134.943 41.6313 137.258 42.18 139.759 42.18V38.18C137.86 38.18 136.215 37.7687 134.777 36.9842L132.861 40.4958ZM139.759 42.18C143.948 42.18 147.495 40.5412 150.268 37.3524L147.25 34.7276C145.223 37.0588 142.769 38.18 139.759 38.18V42.18ZM147.371 37.4803L152.291 42.2203L155.067 39.3397L150.147 34.5997L147.371 37.4803ZM152.152 39.4888C149.332 42.8241 145.227 44.6 139.519 44.6V48.6C146.13 48.6 151.466 46.4959 155.206 42.0712L152.152 39.4888ZM173.19 32.32L174.72 31.0317L173.29 29.3341L171.75 30.932L173.19 32.32ZM168.39 37.3L166.95 35.9121L166.39 36.493V37.3H168.39ZM168.39 46V48H170.39V46H168.39ZM160.83 46H158.83V48H160.83V46ZM160.83 11.68V9.68H158.83V11.68H160.83ZM168.39 11.68H170.39V9.68H168.39V11.68ZM168.39 28.06H166.39V32.9785L169.823 29.4557L168.39 28.06ZM184.35 11.68V9.68H183.506L182.918 10.2843L184.35 11.68ZM192.75 11.68L194.209 13.0481L197.367 9.68H192.75V11.68ZM178.29 27.1L176.831 25.7319L175.637 27.006L176.738 28.3614L178.29 27.1ZM193.65 46V48H197.853L195.202 44.7386L193.65 46ZM184.71 46L183.18 47.2883L183.78 48H184.71V46ZM171.75 30.932L166.95 35.9121L169.83 38.688L174.63 33.7079L171.75 30.932ZM166.39 37.3V46H170.39V37.3H166.39ZM168.39 44H160.83V48H168.39V44ZM162.83 46V11.68H158.83V46H162.83ZM160.83 13.68H168.39V9.68H160.83V13.68ZM166.39 11.68V28.06H170.39V11.68H166.39ZM169.823 29.4557L185.783 13.0757L182.918 10.2843L166.958 26.6643L169.823 29.4557ZM184.35 13.68H192.75V9.68H184.35V13.68ZM191.291 10.3119L176.831 25.7319L179.749 28.4681L194.209 13.0481L191.291 10.3119ZM176.738 28.3614L192.098 47.2614L195.202 44.7386L179.842 25.8386L176.738 28.3614ZM193.65 44H184.71V48H193.65V44ZM186.24 44.7117L174.72 31.0317L171.66 33.6083L183.18 47.2883L186.24 44.7117ZM224.899 14.98L223.63 16.5259L223.637 16.5316L223.644 16.5372L224.899 14.98ZM224.839 33.16L223.581 31.605L223.576 31.6095L223.57 31.6141L224.839 33.16ZM206.659 36.46V34.46H204.659V36.46H206.659ZM206.659 46V48H208.659V46H206.659ZM199.099 46H197.099V48H199.099V46ZM199.099 11.68V9.68H197.099V11.68H199.099ZM219.259 28.72L218.015 27.1538L218.004 27.1628L217.992 27.1721L219.259 28.72ZM219.259 19.42L217.992 20.9679L218.018 20.9887L218.044 21.0087L219.259 19.42ZM206.659 17.8V15.8H204.659V17.8H206.659ZM206.659 30.34H204.659V32.34H206.659V30.34ZM213.919 13.68C218.253 13.68 221.413 14.7057 223.63 16.5259L226.168 13.4341C223.025 10.8543 218.865 9.68 213.919 9.68V13.68ZM223.644 16.5372C225.789 18.2661 226.919 20.678 226.919 24.04H230.919C230.919 19.642 229.369 16.0139 226.154 13.4228L223.644 16.5372ZM226.919 24.04C226.919 27.391 225.776 29.8294 223.581 31.605L226.097 34.715C229.341 32.0906 230.919 28.449 230.919 24.04H226.919ZM223.57 31.6141C221.35 33.4366 218.208 34.46 213.919 34.46V38.46C218.83 38.46 222.968 37.2834 226.108 34.7059L223.57 31.6141ZM213.919 34.46H206.659V38.46H213.919V34.46ZM204.659 36.46V46H208.659V36.46H204.659ZM206.659 44H199.099V48H206.659V44ZM201.099 46V11.68H197.099V46H201.099ZM199.099 13.68H213.919V9.68H199.099V13.68ZM213.379 32.34C216.209 32.34 218.703 31.7591 220.525 30.2679L217.992 27.1721C217.175 27.8409 215.748 28.34 213.379 28.34V32.34ZM220.503 30.2862C222.427 28.7583 223.299 26.5707 223.299 24.04H219.299C219.299 25.5893 218.811 26.5217 218.015 27.1538L220.503 30.2862ZM223.299 24.04C223.299 21.511 222.426 19.3242 220.474 17.8313L218.044 21.0087C218.812 21.5957 219.299 22.489 219.299 24.04H223.299ZM220.525 17.8721C218.703 16.3809 216.209 15.8 213.379 15.8V19.8C215.748 19.8 217.175 20.2991 217.992 20.9679L220.525 17.8721ZM213.379 15.8H206.659V19.8H213.379V15.8ZM204.659 17.8V30.34H208.659V17.8H204.659ZM206.659 32.34H213.379V28.34H206.659V32.34ZM243.553 44.32L242.601 46.0786L242.61 46.0837L242.62 46.0888L243.553 44.32ZM236.773 37.96L235.06 38.9927L235.067 39.0039L236.773 37.96ZM236.773 19.78L238.479 20.824L238.486 20.8127L236.773 19.78ZM243.553 13.42L242.62 11.6512V11.6512L243.553 13.42ZM262.933 13.42L263.867 11.6512V11.6512L262.933 13.42ZM269.713 19.78L268 20.8127L268.007 20.8239L269.713 19.78ZM269.713 37.96L271.419 39.004L271.426 38.9927L269.713 37.96ZM262.933 44.32L263.867 46.0888L263.876 46.0837L263.886 46.0786L262.933 44.32ZM259.033 38.74L260.008 40.4864L260.023 40.4778L260.039 40.469L259.033 38.74ZM263.053 34.66L264.8 35.6347V35.6347L263.053 34.66ZM263.053 23.02L264.8 22.0453L263.053 23.02ZM259.033 19L258.059 20.7464V20.7464L259.033 19ZM247.453 19.06L248.428 20.8064L248.443 20.7978L248.459 20.789L247.453 19.06ZM243.373 23.08L241.644 22.0748L241.641 22.0812L241.637 22.0877L243.373 23.08ZM243.373 34.66L241.627 35.6347L241.635 35.6501L241.644 35.6652L243.373 34.66ZM247.453 38.74L246.448 40.469L246.463 40.4778L246.479 40.4864L247.453 38.74ZM253.213 44.6C249.948 44.6 247.053 43.9055 244.487 42.5512L242.62 46.0888C245.814 47.7745 249.359 48.6 253.213 48.6V44.6ZM244.506 42.5614C241.922 41.1617 239.927 39.2827 238.479 36.9161L235.067 39.0039C236.899 41.9973 239.425 44.3583 242.601 46.0786L244.506 42.5614ZM238.486 36.9273C237.045 34.5373 236.313 31.858 236.313 28.84H232.313C232.313 32.542 233.222 35.9427 235.061 38.9927L238.486 36.9273ZM236.313 28.84C236.313 25.8218 237.045 23.1677 238.479 20.8239L235.067 18.7361C233.222 21.7523 232.313 25.1382 232.313 28.84H236.313ZM238.486 20.8127C239.933 18.4126 241.92 16.5434 244.487 15.1888L242.62 11.6512C239.426 13.3366 236.893 15.7074 235.061 18.7473L238.486 20.8127ZM244.487 15.1888C247.053 13.8345 249.948 13.14 253.213 13.14V9.14C249.359 9.14 245.814 9.96554 242.62 11.6512L244.487 15.1888ZM253.213 13.14C256.523 13.14 259.437 13.8361 262 15.1888L263.867 11.6512C260.67 9.96386 257.104 9.14 253.213 9.14V13.14ZM262 15.1888C264.566 16.5434 266.553 18.4126 268.001 20.8127L271.426 18.7473C269.593 15.7074 267.06 13.3366 263.867 11.6512L262 15.1888ZM268.007 20.8239C269.442 23.1677 270.173 25.8218 270.173 28.84H274.173C274.173 25.1382 273.265 21.7523 271.419 18.7361L268.007 20.8239ZM270.173 28.84C270.173 31.858 269.442 34.5373 268.001 36.9273L271.426 38.9927C273.265 35.9427 274.173 32.542 274.173 28.84H270.173ZM268.007 36.9161C266.559 39.2827 264.565 41.1617 261.981 42.5614L263.886 46.0786C267.062 44.3583 269.587 41.9973 271.419 39.0039L268.007 36.9161ZM262 42.5512C259.437 43.9039 256.523 44.6 253.213 44.6V48.6C257.104 48.6 260.67 47.7761 263.867 46.0888L262 42.5512ZM253.213 42.18C255.681 42.18 257.962 41.6284 260.008 40.4864L258.059 36.9936C256.665 37.7716 255.066 38.18 253.213 38.18V42.18ZM260.039 40.469C262.065 39.2905 263.663 37.6714 264.8 35.6347L261.307 33.6853C260.524 35.0886 259.441 36.1895 258.028 37.011L260.039 40.469ZM264.8 35.6347C265.942 33.5886 266.493 31.3074 266.493 28.84H262.493C262.493 30.6926 262.085 32.2914 261.307 33.6853L264.8 35.6347ZM266.493 28.84C266.493 26.3726 265.942 24.0914 264.8 22.0453L261.307 23.9947C262.085 25.3886 262.493 26.9874 262.493 28.84H266.493ZM264.8 22.0453C263.659 20.0015 262.052 18.3943 260.008 17.2536L258.059 20.7464C259.455 21.5257 260.528 22.5985 261.307 23.9947L264.8 22.0453ZM260.008 17.2536C257.962 16.1116 255.681 15.56 253.213 15.56V19.56C255.066 19.56 256.665 19.9684 258.059 20.7464L260.008 17.2536ZM253.213 15.56C250.764 15.56 248.493 16.1418 246.448 17.331L248.459 20.789C249.853 19.9782 251.422 19.56 253.213 19.56V15.56ZM246.479 17.3136C244.442 18.4504 242.823 20.0478 241.644 22.0748L245.102 24.0852C245.924 22.6722 247.025 21.5896 248.428 20.8064L246.479 17.3136ZM241.637 22.0877C240.485 24.1039 239.933 26.3733 239.933 28.84H243.933C243.933 26.9867 244.342 25.4161 245.11 24.0723L241.637 22.0877ZM239.933 28.84C239.933 31.3074 240.485 33.5886 241.627 35.6347L245.12 33.6853C244.342 32.2914 243.933 30.6926 243.933 28.84H239.933ZM241.644 35.6652C242.819 37.6852 244.428 39.2946 246.448 40.469L248.459 37.011C247.038 36.1854 245.928 35.0748 245.102 33.6548L241.644 35.6652ZM246.479 40.4864C248.519 41.6253 250.779 42.18 253.213 42.18V38.18C251.408 38.18 249.827 37.7747 248.428 36.9936L246.479 40.4864ZM280.031 11.68V9.68H278.031V11.68H280.031ZM287.591 11.68H289.591V9.68H287.591V11.68ZM287.591 46V48H289.591V46H287.591ZM280.031 46H278.031V48H280.031V46ZM280.031 13.68H287.591V9.68H280.031V13.68ZM285.591 11.68V46H289.591V11.68H285.591ZM287.591 44H280.031V48H287.591V44ZM282.031 46V11.68H278.031V46H282.031ZM329.939 11.68H331.939V9.68H329.939V11.68ZM329.939 46V48H331.939V46H329.939ZM323.699 46L322.156 47.2728L322.756 48H323.699V46ZM305.879 24.4L307.422 23.1272L303.879 18.833V24.4H305.879ZM305.879 46V48H307.879V46H305.879ZM298.319 46H296.319V48H298.319V46ZM298.319 11.68V9.68H296.319V11.68H298.319ZM304.619 11.68L306.164 10.4093L305.564 9.68H304.619V11.68ZM322.439 33.34L320.895 34.6107L324.439 38.9189V33.34H322.439ZM322.439 11.68V9.68H320.439V11.68H322.439ZM327.939 11.68V46H331.939V11.68H327.939ZM329.939 44H323.699V48H329.939V44ZM325.242 44.7272L307.422 23.1272L304.336 25.6728L322.156 47.2728L325.242 44.7272ZM303.879 24.4V46H307.879V24.4H303.879ZM305.879 44H298.319V48H305.879V44ZM300.319 46V11.68H296.319V46H300.319ZM298.319 13.68H304.619V9.68H298.319V13.68ZM303.075 12.9507L320.895 34.6107L323.984 32.0693L306.164 10.4093L303.075 12.9507ZM324.439 33.34V11.68H320.439V33.34H324.439ZM322.439 13.68H329.939V9.68H322.439V13.68ZM346.99 17.86H348.99V15.86H346.99V17.86ZM335.71 17.86H333.71V19.86H335.71V17.86ZM335.71 11.68V9.68H333.71V11.68H335.71ZM365.83 11.68H367.83V9.68H365.83V11.68ZM365.83 17.86V19.86H367.83V17.86H365.83ZM354.55 17.86V15.86H352.55V17.86H354.55ZM354.55 46V48H356.55V46H354.55ZM346.99 46H344.99V48H346.99V46ZM346.99 15.86H335.71V19.86H346.99V15.86ZM337.71 17.86V11.68H333.71V17.86H337.71ZM335.71 13.68H365.83V9.68H335.71V13.68ZM363.83 11.68V17.86H367.83V11.68H363.83ZM365.83 15.86H354.55V19.86H365.83V15.86ZM352.55 17.86V46H356.55V17.86H352.55ZM354.55 44H346.99V48H354.55V44ZM348.99 46V17.86H344.99V46H348.99Z" fill="#6C48B8" fill-opacity="0.5"/>
</g>
<g filter="url(#filter1_d)">
<path d="M27.24 42.6C23.68 42.6 20.46 41.84 17.58 40.32C14.74 38.76 12.5 36.64 10.86 33.96C9.22 31.24 8.4 28.2 8.4 24.84C8.4 21.48 9.22 18.46 10.86 15.78C12.5 13.1 14.74 11 17.58 9.48C20.46 7.92 23.68 7.14 27.24 7.14C33.48 7.14 38.2 9.08 41.4 12.96L36.48 17.64C34.04 14.92 31.04 13.56 27.48 13.56C25.28 13.56 23.3 14.04 21.54 15C19.82 15.96 18.46 17.3 17.46 19.02C16.5 20.74 16.02 22.68 16.02 24.84C16.02 27.04 16.5 29 17.46 30.72C18.46 32.44 19.82 33.78 21.54 34.74C23.3 35.7 25.28 36.18 27.48 36.18C31.08 36.18 34.08 34.8 36.48 32.04L41.4 36.78C38.12 40.66 33.4 42.6 27.24 42.6ZM48.5512 7.68H56.1113V21.48H72.6113V7.68H80.1713V42H72.6113V27.72H56.1113V42H48.5512V7.68ZM117.562 35.94V42H90.9216V7.68H116.902V13.8H98.4816V21.66H114.862V27.54H98.4816V35.94H117.562ZM141.519 42.6C137.959 42.6 134.739 41.84 131.859 40.32C129.019 38.76 126.779 36.64 125.139 33.96C123.499 31.24 122.679 28.2 122.679 24.84C122.679 21.48 123.499 18.46 125.139 15.78C126.779 13.1 129.019 11 131.859 9.48C134.739 7.92 137.959 7.14 141.519 7.14C147.759 7.14 152.479 9.08 155.679 12.96L150.759 17.64C148.319 14.92 145.319 13.56 141.759 13.56C139.559 13.56 137.579 14.04 135.819 15C134.099 15.96 132.739 17.3 131.739 19.02C130.779 20.74 130.299 22.68 130.299 24.84C130.299 27.04 130.779 29 131.739 30.72C132.739 32.44 134.099 33.78 135.819 34.74C137.579 35.7 139.559 36.18 141.759 36.18C145.359 36.18 148.359 34.8 150.759 32.04L155.679 36.78C152.399 40.66 147.679 42.6 141.519 42.6ZM175.19 28.32L170.39 33.3V42H162.83V7.68H170.39V24.06L186.35 7.68H194.75L180.29 23.1L195.65 42H186.71L175.19 28.32ZM215.919 7.68C220.559 7.68 224.219 8.78 226.899 10.98C229.579 13.14 230.919 16.16 230.919 20.04C230.919 23.92 229.559 26.96 226.839 29.16C224.159 31.36 220.519 32.46 215.919 32.46H208.659V42H201.099V7.68H215.919ZM215.379 26.34C217.979 26.34 219.939 25.8 221.259 24.72C222.619 23.64 223.299 22.08 223.299 20.04C223.299 18 222.619 16.46 221.259 15.42C219.939 14.34 217.979 13.8 215.379 13.8H208.659V26.34H215.379ZM255.213 42.6C251.653 42.6 248.433 41.84 245.553 40.32C242.673 38.76 240.413 36.64 238.773 33.96C237.133 31.24 236.313 28.2 236.313 24.84C236.313 21.48 237.133 18.46 238.773 15.78C240.413 13.06 242.673 10.94 245.553 9.42C248.433 7.9 251.653 7.14 255.213 7.14C258.813 7.14 262.053 7.9 264.933 9.42C267.813 10.94 270.073 13.06 271.713 15.78C273.353 18.46 274.173 21.48 274.173 24.84C274.173 28.2 273.353 31.24 271.713 33.96C270.073 36.64 267.813 38.76 264.933 40.32C262.053 41.84 258.813 42.6 255.213 42.6ZM255.213 36.18C257.373 36.18 259.313 35.7 261.033 34.74C262.753 33.74 264.093 32.38 265.053 30.66C266.013 28.94 266.493 27 266.493 24.84C266.493 22.68 266.013 20.74 265.053 19.02C264.093 17.3 262.753 15.96 261.033 15C259.313 14.04 257.373 13.56 255.213 13.56C253.093 13.56 251.173 14.06 249.453 15.06C247.733 16.02 246.373 17.36 245.373 19.08C244.413 20.76 243.933 22.68 243.933 24.84C243.933 27 244.413 28.94 245.373 30.66C246.373 32.38 247.733 33.74 249.453 34.74C251.173 35.7 253.093 36.18 255.213 36.18ZM282.031 7.68H289.591V42H282.031V7.68ZM331.939 7.68V42H325.699L307.879 20.4V42H300.319V7.68H306.619L324.439 29.34V7.68H331.939ZM348.99 13.86H337.71V7.68H367.83V13.86H356.55V42H348.99V13.86Z" fill="#6C48B8"/>
</g>
<defs>
<filter id="filter0_d" x="0.400024" y="9.14001" width="371.43" height="47.46" filterUnits="userSpaceOnUse" color-interpolation-filters="sRGB">
<feFlood flood-opacity="0" result="BackgroundImageFix"/>
<feColorMatrix in="SourceAlpha" type="matrix" values="0 0 0 0 0 0 0 0 0 0 0 0 0 0 0 0 0 0 127 0"/>
<feOffset dy="4"/>
<feGaussianBlur stdDeviation="2"/>
<feColorMatrix type="matrix" values="0 0 0 0 0 0 0 0 0 0 0 0 0 0 0 0 0 0 0.25 0"/>
<feBlend mode="normal" in2="BackgroundImageFix" result="effect1_dropShadow"/>
<feBlend mode="normal" in="SourceGraphic" in2="effect1_dropShadow" result="shape"/>
</filter>
<filter id="filter1_d" x="4.40002" y="7.14001" width="367.43" height="43.46" filterUnits="userSpaceOnUse" color-interpolation-filters="sRGB">
<feFlood flood-opacity="0" result="BackgroundImageFix"/>
<feColorMatrix in="SourceAlpha" type="matrix" values="0 0 0 0 0 0 0 0 0 0 0 0 0 0 0 0 0 0 127 0"/>
<feOffset dy="4"/>
<feGaussianBlur stdDeviation="2"/>
<feColorMatrix type="matrix" values="0 0 0 0 0 0 0 0 0 0 0 0 0 0 0 0 0 0 0.25 0"/>
<feBlend mode="normal" in2="BackgroundImageFix" result="effect1_dropShadow"/>
<feBlend mode="normal" in="SourceGraphic" in2="effect1_dropShadow" result="shape"/>
</filter>
</defs>
</svg>
